<?xml version="1.0" standalone="no"?>
<!DOCTYPE svg PUBLIC "-//W3C//DTD SVG 20010904//EN"
 "http://www.w3.org/TR/2001/REC-SVG-20010904/DTD/svg10.dtd">
<svg version="1.0" xmlns="http://www.w3.org/2000/svg"
 width="554.000000pt" height="554.000000pt" viewBox="0 0 554.000000 554.000000"
 preserveAspectRatio="xMidYMid meet">

<g transform="translate(0.000000,554.000000) scale(0.100000,-0.100000)"
fill="#000000" stroke="none">
<path d="M2728 4543 c-14 -3 -15 -15 -11 -84 3 -43 4 -79 1 -79 -3 0 -29 36
-58 80 -41 63 -58 80 -76 80 -23 0 -24 -2 -24 -84 0 -125 9 -176 31 -176 16 0
19 10 21 82 l3 82 50 -77 c42 -65 54 -77 78 -77 26 0 27 2 27 48 0 75 -12 212
-19 211 -3 -1 -13 -3 -23 -6z"/>
<path d="M2857 4488 c-4 -29 -9 -88 -13 -130 l-6 -78 26 0 c21 0 26 5 26 24 0
13 3 38 6 55 l7 32 53 -7 c50 -6 54 -5 54 14 0 22 -24 32 -77 32 -35 0 -36 2
-26 38 5 22 10 23 64 20 49 -2 59 0 63 14 6 24 4 24 -90 32 l-82 7 -5 -53z"/>
<path d="M2420 4508 c0 -7 7 -66 17 -130 16 -115 22 -128 52 -109 12 7 11 27
-4 130 -17 115 -19 121 -42 121 -12 0 -23 -6 -23 -12z"/>
<path d="M3175 4493 c-70 -17 -118 -135 -81 -201 30 -56 115 -79 175 -47 62
32 82 148 35 204 -21 25 -83 54 -104 50 -3 -1 -14 -3 -25 -6z m85 -63 c44 -44
5 -160 -54 -160 -73 0 -97 98 -39 162 21 24 68 23 93 -2z"/>
<path d="M2168 4463 c-10 -2 -18 -6 -18 -7 0 -1 11 -36 25 -76 14 -40 23 -75
21 -77 -2 -2 -35 23 -74 57 -60 51 -75 60 -97 54 -19 -5 -24 -11 -20 -23 4 -9
22 -64 41 -123 30 -93 37 -105 54 -101 25 7 25 16 0 88 -11 33 -19 63 -18 67
2 4 35 -19 73 -52 73 -62 80 -66 105 -50 12 8 9 27 -25 129 -21 67 -42 120
-45 120 -3 -1 -13 -3 -22 -6z"/>
<path d="M3400 4318 c-25 -62 -45 -117 -45 -122 0 -5 10 -12 22 -17 19 -7 23
-2 39 42 10 27 22 49 26 49 20 0 46 -41 52 -81 8 -53 14 -64 44 -73 26 -9 27
-1 8 72 -13 51 -13 52 10 52 27 0 64 43 64 75 0 31 -35 59 -109 89 -36 14 -65
26 -65 26 -1 0 -21 -51 -46 -112z m117 37 c45 -19 55 -33 42 -57 -12 -22 -26
-22 -72 -3 -34 14 -35 16 -24 45 13 35 8 34 54 15z"/>
<path d="M1806 4317 c-16 -12 -16 -22 -5 -145 7 -73 15 -132 20 -132 26 0 39
15 39 46 0 31 5 37 45 56 l45 22 22 -21 c17 -18 25 -19 45 -10 13 6 22 13 21
17 -6 12 -196 180 -205 180 -5 0 -17 -6 -27 -13z m104 -118 c0 -8 -52 -31 -57
-25 -3 2 -7 23 -10 47 l-6 42 36 -29 c21 -16 37 -32 37 -35z"/>
<path d="M3664 4199 c-36 -61 -64 -111 -63 -112 2 -2 11 -8 20 -15 15 -11 23
-2 64 68 26 45 49 79 51 78 2 -2 -8 -39 -21 -81 -30 -93 -30 -103 -7 -116 14
-8 30 3 91 62 79 77 79 77 -1 -53 -25 -41 -26 -46 -11 -57 9 -7 19 -13 22 -13
7 0 134 220 130 224 -2 1 -17 10 -33 20 l-28 18 -64 -63 c-35 -35 -64 -61 -64
-58 0 3 11 42 24 87 l24 81 -34 20 -33 20 -67 -110z"/>
<path d="M1532 4150 c-34 -22 -62 -42 -62 -45 0 -4 32 -53 71 -110 l72 -103
48 35 c70 50 92 81 85 121 -11 69 -79 142 -132 142 -11 0 -49 -18 -82 -40z
m127 -45 c47 -54 50 -83 12 -117 -17 -15 -35 -28 -39 -28 -4 1 -28 32 -55 70
l-47 70 32 20 c46 28 61 25 97 -15z"/>
<path d="M3957 4003 c-117 -64 -117 -65 -95 -82 20 -16 24 -17 48 -3 25 15 29
14 64 -14 34 -26 37 -32 32 -65 -4 -28 -1 -40 13 -53 19 -17 21 -14 61 114 41
126 41 132 25 151 -10 10 -21 19 -24 18 -3 -1 -59 -30 -124 -66z m97 -25 c-12
-39 -23 -68 -27 -68 -2 0 -14 11 -26 24 l-22 23 33 22 c42 27 51 26 42 -1z"/>
<path d="M4208 3937 c-15 -10 -14 -14 8 -43 l25 -32 -77 -71 c-75 -70 -76 -72
-58 -92 18 -20 18 -19 89 51 39 38 75 70 80 70 5 0 21 -11 35 -25 24 -23 28
-24 40 -10 11 13 4 25 -51 83 -34 37 -65 70 -68 73 -3 4 -13 2 -23 -4z"/>
<path d="M1224 3886 c-85 -85 -2 -179 98 -111 52 35 78 33 78 -5 0 -37 -36
-64 -73 -55 -19 5 -28 2 -36 -13 -9 -18 -7 -22 20 -31 84 -29 174 85 123 157
-21 31 -72 29 -133 -5 -39 -22 -53 -25 -62 -16 -20 20 15 63 50 63 31 0 57 22
46 40 -3 5 -22 10 -42 10 -27 0 -43 -8 -69 -34z"/>
<path d="M1090 3725 c-6 -8 -9 -18 -6 -24 9 -13 196 -155 199 -150 1 2 8 11
15 20 11 14 -1 27 -87 93 -55 42 -102 76 -104 76 -3 0 -10 -7 -17 -15z"/>
<path d="M4310 3674 c-114 -88 -112 -85 -95 -108 14 -18 19 -15 110 54 53 40
98 77 101 82 6 9 -14 38 -25 38 -3 0 -44 -30 -91 -66z"/>
<path d="M2710 3614 c-187 -87 -257 -250 -218 -507 9 -61 9 -80 -1 -90 -17
-17 -55 29 -46 57 3 12 8 49 12 83 5 51 2 67 -14 93 l-20 32 -50 -69 c-78
-105 -151 -220 -185 -292 -61 -127 -50 -273 32 -438 26 -51 43 -93 38 -93 -19
0 -67 31 -90 59 -23 27 -25 39 -30 166 -5 132 -7 138 -42 208 -19 40 -45 83
-56 97 l-20 25 0 -27 c0 -48 -57 -196 -122 -316 l-63 -117 0 -100 c0 -88 3
-107 27 -158 39 -82 145 -187 246 -243 2 -1 -3 -13 -12 -26 -9 -13 -19 -45
-22 -71 -6 -42 -4 -49 23 -75 38 -38 99 -51 277 -58 160 -6 220 -21 287 -69
l47 -33 23 25 c51 54 92 66 258 74 231 12 311 44 311 123 0 39 -16 87 -32 97
-7 4 18 39 63 89 141 154 190 251 194 385 2 44 3 88 4 97 1 10 15 33 32 52
l30 35 -30 15 c-68 36 -144 5 -205 -82 -16 -24 -30 -41 -31 -40 -2 2 4 37 12
78 17 90 12 139 -23 222 -24 57 -26 72 -22 161 3 66 2 97 -6 97 -29 0 -137
-62 -187 -108 -65 -60 -124 -162 -141 -247 -13 -64 -34 -69 -31 -7 1 27 19 75
52 139 60 118 79 204 62 284 -15 70 -35 99 -130 191 -64 64 -84 90 -106 145
-21 54 -26 78 -22 116 7 56 3 57 -73 21z m9 -470 c34 -24 81 -103 81 -136 0
-36 -23 -81 -67 -133 -18 -21 -39 -56 -45 -77 -13 -46 -23 -48 -43 -8 -24 46
-18 85 22 159 37 67 37 70 25 115 -14 53 -16 96 -4 96 4 0 18 -7 31 -16z
m-270 -453 l51 -47 0 -67 c0 -79 -15 -88 -53 -32 -14 20 -43 52 -66 71 -60 52
-73 122 -39 214 9 23 11 21 33 -34 16 -40 40 -73 74 -105z m731 -7 c21 -102
-7 -196 -93 -310 -78 -102 -81 -103 -75 -8 5 86 36 168 106 278 18 28 32 60
32 73 0 43 19 23 30 -33z m-470 -133 l32 -90 61 -5 c34 -4 80 -7 102 -9 l40
-2 -77 -59 c-43 -32 -78 -61 -78 -65 0 -3 11 -46 25 -96 13 -49 23 -90 21 -92
-1 -1 -36 22 -78 52 -42 30 -79 55 -83 55 -3 0 -40 -25 -81 -56 -42 -30 -82
-58 -90 -61 -10 -4 -5 22 21 92 19 54 35 100 35 104 0 4 -36 34 -81 67 l-81
59 104 5 103 5 27 75 c14 41 28 83 31 93 3 9 7 17 10 17 2 0 19 -40 37 -89z
m-530 -316 c19 -23 127 -80 188 -100 58 -19 115 -62 137 -104 16 -31 30 -101
21 -101 -4 0 -24 13 -44 29 -20 17 -61 39 -89 50 -107 42 -171 98 -218 191
-24 48 -21 67 5 35z m1040 -75 c0 -26 -72 -105 -124 -135 -23 -13 -74 -33
-115 -45 -52 -15 -83 -31 -103 -52 l-28 -30 0 46 c0 83 68 134 237 176 43 10
89 28 103 39 31 25 30 25 30 1z"/>
<path d="M1011 3617 c-21 -21 -11 -33 57 -72 l67 -40 -95 -3 c-83 -2 -97 -5
-113 -23 -17 -21 -16 -22 95 -90 81 -49 114 -65 120 -56 15 23 7 33 -57 72
l-65 40 96 5 c82 4 99 8 110 25 12 19 6 24 -95 87 -80 48 -112 63 -120 55z"/>
<path d="M4378 3563 c-95 -58 -106 -67 -97 -84 12 -23 27 -24 53 -4 22 16 54
19 74 7 9 -6 4 -22 -19 -66 -28 -51 -30 -60 -19 -82 8 -13 16 -24 20 -24 3 0
24 36 45 80 28 58 43 79 55 75 22 -6 104 -24 113 -25 5 0 -1 13 -12 29 -18 24
-32 31 -91 42 -39 7 -70 15 -70 19 0 3 18 16 40 29 41 23 49 41 27 59 -9 8
-40 -7 -119 -55z"/>
<path d="M851 3316 c-31 -33 -45 -89 -30 -118 16 -30 28 -38 63 -38 22 0 40
12 75 50 38 40 49 47 64 39 35 -20 6 -89 -39 -89 -13 0 -24 -4 -24 -9 0 -5 -3
-16 -6 -25 -5 -13 1 -16 26 -16 17 0 40 5 51 10 46 25 67 131 32 162 -46 40
-91 30 -137 -33 -33 -43 -66 -52 -66 -18 0 31 19 59 39 59 17 0 31 18 31 41 0
19 -57 9 -79 -15z"/>
<path d="M4528 3293 c-71 -2 -128 -6 -128 -9 0 -23 25 -44 51 -44 26 0 32 -6
50 -47 l20 -46 -22 -23 c-17 -18 -19 -28 -13 -48 9 -26 11 -24 108 73 95 95
99 101 88 126 -6 14 -15 24 -19 23 -5 -1 -65 -4 -135 -5z m92 -50 c0 -5 -15
-20 -34 -35 l-33 -27 -12 25 c-18 39 -14 44 34 44 25 0 45 -3 45 -7z"/>
<path d="M759 3090 c-1 -5 -2 -15 -3 -22 -1 -6 53 -28 119 -48 118 -37 120
-37 128 -17 4 11 5 22 2 25 -8 8 -209 72 -227 72 -10 0 -19 -4 -19 -10z"/>
<path d="M4648 2937 c-103 -19 -108 -22 -108 -45 0 -23 2 -24 43 -19 31 4 48
1 66 -12 l23 -18 -51 -44 c-50 -43 -58 -60 -45 -94 6 -13 20 -4 73 49 l66 66
54 -36 c29 -20 55 -34 57 -31 3 3 2 16 -2 31 -4 18 -25 38 -71 65 -36 21 -61
41 -56 44 4 3 30 8 56 12 36 6 47 11 43 22 -3 8 -6 19 -6 24 0 12 -17 11 -142
-14z"/>
<path d="M726 2928 c-14 -23 -36 -112 -36 -146 0 -14 19 -21 98 -36 53 -10
109 -20 123 -23 25 -5 27 -3 39 62 17 89 16 112 -5 135 -22 24 -77 27 -95 5
-11 -14 -14 -13 -27 5 -20 29 -78 27 -97 -2z m79 -37 c3 -6 2 -28 -1 -51 -6
-37 -9 -41 -33 -38 -30 3 -38 29 -22 71 10 27 44 37 56 18z m110 -12 c4 -6 4
-30 0 -55 -5 -37 -10 -44 -28 -44 -39 0 -50 14 -42 51 4 19 12 40 17 47 13 15
44 16 53 1z"/>
<path d="M4661 2653 l-84 -4 7 -67 c3 -37 6 -82 6 -99 0 -26 4 -33 20 -33 18
0 20 7 20 75 l0 75 35 0 35 0 0 -66 c0 -61 1 -65 21 -62 20 3 22 10 23 68 1
63 2 65 29 68 l27 3 0 -70 c0 -70 0 -71 26 -71 25 0 26 2 20 38 -3 20 -6 63
-6 95 l0 57 -47 -2 c-27 -1 -86 -4 -132 -5z"/>
<path d="M664 2513 c3 -21 6 -66 6 -100 0 -56 2 -63 20 -63 17 0 20 7 20 40
l0 40 105 0 105 0 0 25 0 25 -105 0 -105 0 0 35 c0 31 -3 35 -26 35 -25 0 -26
-2 -20 -37z"/>
<path d="M4613 2385 c-43 -30 -51 -126 -15 -167 16 -19 76 -24 99 -10 7 4 22
30 34 57 29 68 38 78 55 64 20 -17 17 -57 -6 -76 -11 -10 -20 -28 -20 -40 0
-26 1 -27 33 -12 30 14 47 48 47 97 0 52 -23 82 -64 82 -39 0 -57 -18 -85 -83
-17 -40 -25 -48 -43 -45 -20 3 -23 9 -23 43 0 32 5 42 23 50 27 12 31 55 4 55
-10 0 -27 -7 -39 -15z"/>
<path d="M732 2278 c-58 -9 -62 -12 -56 -31 9 -31 7 -31 83 -18 109 18 130 15
142 -15 7 -20 6 -32 -5 -49 -16 -24 -34 -29 -133 -41 -58 -6 -63 -9 -63 -30 0
-29 22 -31 137 -9 88 17 113 37 113 90 0 45 -19 94 -40 105 -22 12 -92 11
-178 -2z"/>
<path d="M4560 2142 c0 -16 8 -32 20 -40 23 -14 24 -31 9 -84 -8 -33 -14 -38
-38 -38 -17 0 -31 -7 -35 -16 -16 -40 -11 -41 126 -21 189 27 193 42 39 151
-60 42 -112 76 -115 76 -3 0 -6 -12 -6 -28z m151 -128 c6 -8 -3 -13 -32 -18
-23 -4 -43 -5 -45 -3 -2 2 -1 18 2 35 l6 32 30 -18 c16 -9 34 -22 39 -28z"/>
<path d="M737 1992 c-10 -2 -16 -9 -14 -15 2 -7 16 -51 31 -99 27 -89 31 -94
54 -80 10 7 10 15 2 36 -5 15 -10 31 -10 35 0 5 45 21 100 37 79 23 100 33
100 47 0 29 -23 30 -112 3 -46 -14 -90 -26 -96 -26 -7 0 -15 14 -19 30 -6 34
-11 38 -36 32z"/>
<path d="M4474 1843 c-3 -10 -6 -22 -7 -27 -1 -4 41 -25 93 -45 80 -31 94 -40
91 -57 -8 -41 -5 -58 10 -62 12 -2 21 10 32 40 8 24 24 66 35 94 l21 52 -20 5
c-16 4 -24 -2 -35 -28 l-14 -34 -81 29 c-44 17 -89 35 -100 41 -17 9 -21 7
-25 -8z"/>
<path d="M923 1773 c-62 -25 -113 -50 -113 -57 1 -38 17 -37 131 10 63 25 116
48 117 49 6 6 -9 45 -16 45 -4 -1 -58 -21 -119 -47z"/>
<path d="M3242 1701 c-12 -7 -11 -14 2 -39 23 -44 21 -45 -24 -17 -43 27 -49
29 -68 17 -9 -7 -5 -24 18 -75 27 -61 32 -66 50 -57 19 10 19 13 5 40 -22 42
-19 43 25 15 32 -20 44 -23 60 -15 19 10 19 12 -12 75 -34 68 -35 70 -56 56z"/>
<path d="M2091 1628 c-26 -57 -27 -64 -13 -75 21 -17 32 -16 32 2 0 8 9 19 20
25 18 10 20 8 20 -19 0 -20 8 -35 22 -45 27 -19 39 -20 34 -3 -3 6 -7 31 -10
54 -6 41 -5 42 31 54 l36 12 -26 14 c-23 12 -31 12 -56 -2 -40 -20 -44 -19
-30 6 9 17 8 23 -2 30 -24 15 -29 10 -58 -53z"/>
<path d="M4385 1636 c-37 -39 -53 -93 -37 -123 6 -10 50 -41 99 -69 78 -46 89
-50 101 -36 6 9 12 19 12 23 0 4 -33 26 -74 48 -88 49 -100 62 -92 96 12 48
43 48 135 -2 80 -43 85 -44 98 -27 16 22 12 26 -84 80 -94 53 -116 54 -158 10z"/>
<path d="M1021 1615 c-45 -25 -87 -45 -92 -45 -5 0 -16 14 -24 30 -13 25 -19
29 -35 20 -18 -9 -16 -15 27 -98 56 -106 50 -99 70 -80 15 16 15 19 0 42 -10
14 -17 28 -17 30 0 3 24 18 53 32 118 60 138 74 127 95 -6 10 -14 19 -18 19
-4 0 -45 -21 -91 -45z"/>
<path d="M2253 1560 l-21 -70 54 -16 c51 -14 74 -13 74 5 0 5 -15 12 -32 17
-19 6 -34 17 -36 28 -3 15 0 17 20 10 35 -11 50 -10 55 2 2 6 -10 15 -27 20
-18 5 -31 14 -30 19 1 6 5 9 9 9 67 -15 71 -15 71 -2 0 11 -86 48 -112 48 -3
0 -14 -32 -25 -70z"/>
<path d="M3048 1623 c-13 -3 -17 -19 -20 -81 -2 -42 -3 -78 -3 -79 3 -9 45 12
45 22 0 18 23 25 64 18 20 -3 36 -2 36 3 0 12 -90 124 -98 123 -4 -1 -15 -3
-24 -6z m39 -62 c10 -15 9 -20 -1 -24 -9 -4 -16 3 -19 19 -5 29 4 31 20 5z"/>
<path d="M2943 1592 c-9 -6 -9 -19 -2 -51 11 -50 7 -71 -15 -71 -19 0 -31 23
-40 73 -5 29 -11 37 -22 33 -9 -3 -18 -6 -20 -6 -7 0 -4 -34 7 -73 14 -51 44
-70 92 -56 44 12 54 39 41 107 -9 46 -20 58 -41 44z"/>
<path d="M2410 1565 c-17 -20 -6 -42 30 -63 16 -9 30 -23 30 -29 0 -18 -29
-16 -36 2 -8 19 -44 20 -44 1 0 -21 39 -46 71 -46 33 0 63 32 55 58 -4 11 -23
28 -42 37 -28 13 -33 20 -24 28 9 9 14 8 24 -5 15 -21 46 -24 46 -5 0 23 -23
37 -61 37 -20 0 -42 -7 -49 -15z"/>
<path d="M2727 1563 c-39 -3 -48 -7 -45 -21 2 -10 12 -16 25 -15 21 2 33 -27
33 -83 0 -17 6 -24 20 -24 18 0 20 7 20 55 0 48 2 55 20 55 13 0 20 7 20 20 0
15 -6 20 -22 18 -13 -1 -45 -3 -71 -5z"/>
<path d="M2562 1490 l-31 -70 25 0 c13 0 24 5 24 10 0 6 14 10 30 10 20 0 30
-5 30 -15 0 -9 10 -15 26 -15 28 0 28 -6 -6 95 -13 40 -22 51 -42 53 -22 3
-28 -5 -56 -68z m67 -12 c1 -5 -6 -8 -14 -8 -16 0 -19 9 -8 36 6 16 7 16 14
-2 4 -10 8 -22 8 -26z"/>
<path d="M1125 1465 c-29 -28 -31 -59 -9 -115 26 -65 -7 -99 -43 -44 -13 20
-14 30 -5 44 14 24 -17 57 -36 38 -33 -33 2 -125 57 -148 29 -12 35 -11 59 7
34 25 39 62 17 120 -19 49 -15 73 13 73 34 0 55 -35 48 -79 -8 -53 15 -74 40
-36 25 38 13 92 -31 133 -42 39 -77 41 -110 7z"/>
<path d="M4277 1460 c-13 -19 -13 -25 1 -49 15 -27 14 -29 -13 -65 -25 -33
-33 -37 -61 -33 -23 4 -37 0 -49 -13 -9 -10 -13 -20 -8 -23 4 -3 58 -19 118
-35 61 -17 117 -33 126 -37 10 -4 22 2 31 17 15 23 13 29 -52 136 -37 62 -70
115 -73 118 -3 3 -12 -4 -20 -16z m71 -155 c12 -19 22 -37 22 -39 0 -2 -19 2
-42 9 -43 13 -49 25 -26 52 15 19 21 16 46 -22z"/>
<path d="M1249 1213 c-85 -83 -89 -89 -70 -100 18 -11 27 -6 82 45 35 31 60
50 57 41 -4 -9 -16 -53 -28 -98 -22 -81 -22 -83 -4 -102 19 -18 21 -16 110 71
81 80 89 91 75 104 -14 12 -23 8 -71 -34 -30 -27 -56 -47 -58 -46 -2 2 7 42
19 89 19 71 20 88 10 101 -8 9 -18 16 -23 16 -5 0 -50 -39 -99 -87z"/>
<path d="M4094 1233 c-17 -12 -13 -18 41 -73 33 -33 54 -60 47 -60 -7 0 -51
10 -97 21 -69 17 -88 19 -100 9 -8 -7 -15 -16 -15 -20 0 -4 39 -49 86 -99 83
-88 87 -91 106 -75 18 17 17 20 -44 82 -38 39 -55 62 -43 58 171 -48 177 -49
196 -29 18 17 16 21 -71 108 -79 81 -91 89 -106 78z"/>
<path d="M1453 1019 c-79 -92 -81 -97 -64 -113 17 -16 22 -13 82 56 34 40 73
85 86 99 l24 26 -23 15 c-22 14 -26 11 -105 -83z"/>
<path d="M1932 843 c-17 -30 -92 -215 -92 -224 0 -10 49 -32 137 -61 59 -20
64 -20 88 -4 39 26 51 60 32 89 -15 23 -15 25 8 35 29 13 42 54 27 86 -9 21
-64 49 -177 92 -7 3 -18 -3 -23 -13z m128 -101 c0 -21 -23 -30 -51 -20 -33 11
-33 12 -19 39 10 18 13 18 40 4 17 -9 30 -19 30 -23z m-40 -88 c12 -12 12 -16
-1 -29 -12 -13 -21 -13 -48 -4 -22 8 -30 16 -27 26 3 8 6 19 6 25 0 14 51 1
70 -18z"/>
<path d="M3528 819 c-43 -21 -78 -42 -78 -45 0 -9 98 -197 113 -218 13 -17 15
-17 45 -2 37 19 39 29 12 74 -11 18 -20 37 -20 42 0 19 31 10 76 -21 47 -32
71 -33 108 -6 25 18 15 32 -45 62 -43 22 -48 28 -39 45 27 50 -9 110 -66 110
-16 -1 -64 -19 -106 -41z m99 -45 c4 -11 -2 -23 -18 -35 -31 -24 -36 -24 -50
3 -10 18 -8 24 7 35 24 18 53 16 61 -3z"/>
<path d="M3164 706 c-50 -22 -74 -61 -74 -121 0 -87 52 -145 133 -145 89 0
147 52 147 132 0 91 -50 148 -129 148 -25 -1 -60 -7 -77 -14z m97 -65 c18 -14
23 -29 23 -67 1 -41 -3 -50 -22 -60 -33 -16 -60 -7 -77 27 -22 42 -19 85 7
103 29 21 41 20 69 -3z"/>
<path d="M2334 700 c-56 -22 -95 -115 -75 -179 26 -88 165 -126 233 -64 48 44
65 144 32 192 -33 47 -134 74 -190 51z m111 -77 c34 -33 -4 -133 -50 -133 -51
0 -71 60 -40 120 18 35 62 41 90 13z"/>
<path d="M2745 657 c-49 -23 -68 -52 -73 -114 -6 -66 13 -110 58 -136 40 -24
123 -22 177 4 l43 21 0 59 0 59 -65 0 -65 0 0 -30 c0 -25 4 -30 25 -30 28 0
34 -24 9 -34 -28 -11 -71 -6 -83 8 -18 21 -24 77 -12 108 13 35 52 46 86 24
24 -16 80 -13 90 5 3 4 -5 20 -18 35 -20 23 -33 28 -83 31 -36 2 -71 -2 -89
-10z"/>
</g>
</svg>
